<svg id="Layer_1" data-name="Layer 1" xmlns="http://www.w3.org/2000/svg" viewBox="0 0 848.08 264.36"><defs><style>.cls-1{fill:#0076fb;}</style></defs><path class="cls-1" d="M1098.34,407.9h-80.86a20,20,0,0,0-20,20v13a3,3,0,0,0,3,3h80.86a20,20,0,0,0,20-20v-13A3,3,0,0,0,1098.34,407.9Z" transform="translate(-537.47 -407.9)"/><path class="cls-1" d="M987.52,591.27H906.67a20,20,0,0,0-20,20v13a3,3,0,0,0,3,3h80.85a20,20,0,0,0,20-20v-13A3,3,0,0,0,987.52,591.27Z" transform="translate(-537.47 -407.9)"/><path class="cls-1" d="M1093.44,467.06h-14.83A20,20,0,0,0,1059,483.4c-3.93,21.33-15.32,40.62-30.6,51h-21.61c-2.88,0-4.88-1.92-4.88-3.65v-2.88a126.49,126.49,0,0,0,15.54-57.67,3,3,0,0,0-3-3.09H999.61A20,20,0,0,0,980,483.4c-3.93,21.33-15.31,40.62-30.58,51H935.57c-2.88,0-4.88-1.92-4.88-3.65v-3c.51-1,1-1.92,1.5-2.89a55.51,55.51,0,0,0-49.56-80.43h-6.87a41.9,41.9,0,0,0-41.29,34.34c-4.47,24.55-15.69,44.95-30.4,55.64h-8.93c-2.87,0-4.87-1.92-4.87-3.65v-3.79a100.09,100.09,0,0,0,18.33-51.06c.08-1.08.14-2.16.19-3.24.29-6.13-1.5-17.82-16.71-27.25-18.9-11.71-53.45-16.09-80.29-1.15-13.1,7.29-28.16,21.15-34.06,47.27A20,20,0,0,0,697.23,516h11a3,3,0,0,0,3-2.91c.63-20.44,8-33.65,22-39.27,15.55-6.24,32.83-1.82,39.21,1.77-3.48,33.15-32.16,58.81-66.25,58.81H656.55v0h-8.73c-2.88,0-4.88-1.92-4.88-3.65v-4.35c3.18-17.23,13.39-35.62,28.57-50.36a3,3,0,0,0,.11-4.16l-7.77-8.44a19.86,19.86,0,0,0-12.4-6.3,34.06,34.06,0,0,0-26-12H612.71a70.65,70.65,0,0,0-59.18,31.78h0a132.23,132.23,0,0,0-12.38,23.52,51,51,0,0,0,47.3,70h2.61A50.72,50.72,0,0,0,621,560.56a41.43,41.43,0,0,0,26.83,9.77h7.77v0h50.65A102.68,102.68,0,0,0,762,553.9a41.22,41.22,0,0,0,33.12,16.45h19.19l4.23-2.49a85,85,0,0,0,11-7.71c4.17,2,9.2,4.39,15.27,7.22A60.25,60.25,0,0,0,891,569.21l1.49-.55,1.37-.81a86,86,0,0,0,12.69-9.22,41.33,41.33,0,0,0,29,11.72h23.57l4.1-2.28a89.42,89.42,0,0,0,14.14-9.86,41.37,41.37,0,0,0,29.4,12.14h31.37l4.09-2.28c31.7-17.71,53.22-56.78,54.21-97.92A3,3,0,0,0,1093.44,467.06ZM591.06,534.33h-2.61a15,15,0,0,1-13.89-20.6,96.58,96.58,0,0,1,9-17.1h0A34.75,34.75,0,0,1,612.71,481h9.15a122.43,122.43,0,0,0-16,40.81A15.14,15.14,0,0,1,591.06,534.33ZM877,536a24,24,0,0,1-17-1.22l-6.74-3.16a144.56,144.56,0,0,0,16.6-46.42,5.92,5.92,0,0,1,5.87-4.79h6.87A19.5,19.5,0,0,1,900,508.68C893.93,520.81,886,530.21,877,536Z" transform="translate(-537.47 -407.9)"/><path class="cls-1" d="M713.91,656.27v13a3,3,0,0,0,3,3h20.36a20,20,0,0,0,20-20v-13a3,3,0,0,0-3-3H733.91A20,20,0,0,0,713.91,656.27Z" transform="translate(-537.47 -407.9)"/><path class="cls-1" d="M774.17,591.27H693.31a20,20,0,0,0-20,20v13a3,3,0,0,0,3,3h80.86a20,20,0,0,0,20-20v-13A3,3,0,0,0,774.17,591.27Z" transform="translate(-537.47 -407.9)"/><path class="cls-1" d="M1383.46,421.85l-1.53-.23c-31.71-4.28-79,4.83-123.31,29.42a278.66,278.66,0,0,0-68.12,52.25c-.91.95-1.83,1.89-2.72,2.86-4.66-4-8.79-8.51-14-14-4.86-5.1-19.18-22.28-19.77-23l-1.23-1.36a2.33,2.33,0,0,0-1.75-.78,2.37,2.37,0,0,0-2.36,2.37,143.64,143.64,0,0,0,2.83,27.85c.92,4.6,2,9.17,3.41,13.68a138.16,138.16,0,0,0,4.94,13.26,112,112,0,0,0,14.49,24.58,80.36,80.36,0,0,0,21.62,19.4l3.55,2.16,2.9-3.2s3.58-4,4.81-5.33c25.81-27.7,47.38-46.23,80.5-71.91a850.18,850.18,0,0,1,71.47-49.12c9.17-5.65,16.57-9.84,25-14.39a2.49,2.49,0,0,0,1.26-1.8A2.45,2.45,0,0,0,1383.46,421.85Z" transform="translate(-537.47 -407.9)"/></svg>